<svg xmlns="http://www.w3.org/2000/svg" xmlns:xlink="http://www.w3.org/1999/xlink"><symbol id="icon-address"><path d="M12 0C8.7 0 6 2.7 6 6c0 5.2 6 14.594 6 14.594S18 11.102 18 6c0-3.3-2.7-6-6-6zm0 4c1.102 0 2 .898 2 2 0 1.102-.898 2-2 2-1.102 0-2-.898-2-2 0-1.102.898-2 2-2zM6.281 16.063c-1.699.308-3.152.757-4.218 1.312-.536.277-.97.563-1.313.938-.344.375-.594.847-.594 1.375 0 .796.52 1.44 1.188 1.906.668.465 1.539.84 2.593 1.156 2.114.629 4.95 1 8.063 1 3.113 0 5.95-.371 8.063-1 1.054-.316 1.925-.691 2.593-1.156.668-.465 1.188-1.11 1.188-1.907 0-.535-.246-1.019-.594-1.406-.348-.386-.777-.699-1.313-.968-1.07-.543-2.527-.942-4.218-1.25l-.25 1.468c1.605.293 2.93.692 3.781 1.125.426.215.738.438.906.625.168.188.188.293.188.407 0 .101-.102.367-.563.687-.46.32-1.199.652-2.156.938-1.914.57-4.637.937-7.625.937-2.988 0-5.71-.367-7.625-.938-.957-.285-1.695-.617-2.156-.937-.461-.32-.563-.586-.563-.688 0-.07.016-.156.188-.343.172-.188.476-.434.906-.657.86-.445 2.184-.867 3.781-1.156l-.25-1.468z"/></symbol><symbol id="icon-calendar" viewBox="0 0 128 128"><g><path d="m6.306 39.363h115.387v82.331h-115.387z" fill="#dfeef4"/><path d="m6.306 15.838h115.387v23.525h-115.387z" fill="#f45858"/><path d="m60.269 6.306h7.462v19.062h-7.462z" fill="#6d7a84"/><path d="m90.052 6.306h7.462v19.062h-7.462z" fill="#6d7a84"/><path d="m30.486 6.306h7.462v19.062h-7.462z" fill="#6d7a84"/><g fill="#3ea2e5"><circle cx="27.661" cy="57.048" r="6.283"/><circle cx="51.887" cy="57.048" r="6.283"/><circle cx="76.113" cy="57.048" r="6.283"/><circle cx="100.339" cy="57.048" r="6.283"/><circle cx="27.661" cy="80.528" r="6.283"/><circle cx="51.887" cy="80.528" r="6.283"/><circle cx="76.113" cy="80.528" r="6.283"/><circle cx="100.339" cy="80.528" r="6.283"/><circle cx="27.661" cy="104.009" r="6.283"/><circle cx="51.887" cy="104.009" r="6.283"/><circle cx="76.113" cy="104.009" r="6.283"/><circle cx="100.339" cy="104.009" r="6.283"/></g></g></symbol><symbol id="icon-ruble "><path d="M34.786 428.963h81.158v69.572c0 3.385 1.083 6.156 3.262 8.322 2.173 2.18 4.951 3.27 8.335 3.27h60.502c3.14 0 5.857-1.09 8.152-3.27 2.295-2.166 3.439-4.938 3.439-8.322v-69.572h182.964c3.377 0 6.156-1.076 8.334-3.256 2.18-2.178 3.262-4.951 3.262-8.336v-46.377c0-3.365-1.082-6.156-3.262-8.322-2.172-2.18-4.957-3.27-8.334-3.27h-182.97v-42.754h123.184c48.305 0 87.73-14.719 118.293-44.199 30.551-29.449 45.834-67.49 45.834-114.125 0-46.604-15.283-84.646-45.834-114.125C410.548 14.749 371.116 0 322.812 0H127.535c-3.385 0-6.157 1.089-8.335 3.256-2.173 2.179-3.262 4.969-3.262 8.335v227.896H34.786c-3.384 0-6.157 1.145-8.335 3.439-2.172 2.295-3.262 5.012-3.262 8.151v53.978c0 3.385 1.083 6.158 3.262 8.336 2.179 2.18 4.945 3.256 8.335 3.256h81.158v42.754H34.786c-3.384 0-6.157 1.09-8.335 3.27-2.172 2.166-3.262 4.951-3.262 8.322v46.377c0 3.385 1.083 6.158 3.262 8.336 2.178 2.181 4.95 3.257 8.335 3.257zM199.628 77.179h115.938c25.6 0 46.248 7.485 61.953 22.46 15.697 14.976 23.549 34.547 23.549 58.691 0 24.156-7.852 43.733-23.549 58.691-15.705 14.988-36.354 22.473-61.953 22.473H199.628V77.179z"/></symbol><symbol id="icon-sale" viewBox="0 0 64 64"><g id="sign_&#xB7;_ecommerce_&#xB7;_shopping_&#xB7;_tag_&#xB7;_sale" data-name="sign &#xB7; ecommerce &#xB7; shopping &#xB7; tag &#xB7; sale"><path d="m53.841 5.685-15.4 2.3a8 8 0 0 0 -4.477 2.256l-29.955 29.951a4 4 0 0 0 0 5.657l14.142 14.142a4 4 0 0 0 5.657 0l29.968-29.968a8 8 0 0 0 2.25-4.44l1.2-7.786 1.161-7.547a4 4 0 0 0 -4.546-4.565zm-1.041 9.759a3.022 3.022 0 1 1 .835-1.664 3 3 0 0 1 -.835 1.664z" fill="#ed1c24"/><path d="m56.256 6.085-1.032 6.715-1.2 7.786a8 8 0 0 1 -2.25 4.44l-29.966 29.965a4 4 0 0 1 -5.657 0l-13.125-13.124a3.982 3.982 0 0 0 .983 3.982l14.142 14.142a4 4 0 0 0 5.657 0l29.968-29.968a8 8 0 0 0 2.25-4.44l1.2-7.786 1.161-7.547a4 4 0 0 0 -2.131-4.165z" fill="#cf1820"/><g fill="#f1f2f2"><path d="m23.1 43.728a3 3 0 0 0 -4.243 0l-1.414 1.414a1 1 0 0 1 -1.415 0l-1.414-1.414a1 1 0 0 1 0-1.415l2.828-2.828a1 1 0 0 0 -1.414-1.414l-2.828 2.829a3 3 0 0 0 0 4.243l1.414 1.414a3 3 0 0 0 4.243 0l1.414-1.414a1 1 0 0 1 1.415 0l1.414 1.413a1 1 0 0 1 0 1.415l-2.828 2.829a1 1 0 1 0 1.414 1.414l2.829-2.828a3 3 0 0 0 0-4.243z"/><path d="m34.515 37.628-10.607-6.364a1 1 0 0 0 -1.221.15l-1.415 1.415a1 1 0 0 0 -.15 1.221l6.364 10.607a1 1 0 1 0 1.715-1.03l-1.72-2.866 3.138-3.138 2.866 1.72a1 1 0 0 0 1.03-1.715zm-8.095 1.366-3.182-5.3.31-.31 5.3 3.182z"/><path d="m40.657 30.414-3.536 3.536-7.778-7.778a1 1 0 1 0 -1.414 1.414l8.485 8.485a1 1 0 0 0 1.414 0l4.243-4.243a1 1 0 0 0 -1.414-1.414z"/><path d="m47.314 23.757-2.829 2.829-2.828-2.829 1.414-1.414a1 1 0 0 0 -1.414-1.414l-1.414 1.414-2.829-2.828 2.829-2.829a1 1 0 1 0 -1.414-1.414l-3.536 3.536a1 1 0 0 0 0 1.414l8.485 8.485a1 1 0 0 0 1.414 0l3.536-3.536a1 1 0 1 0 -1.414-1.414z"/></g><path d="m53.776 30.023-11.322 11.322c.047.368.081.657.094.74 1.287 8.193 4.763 13.915 8.452 13.915 4.878 0 9-9.617 9-21 0-5.965-1.1-11.514-3.036-15.516l-.938 6.1a8 8 0 0 1 -2.25 4.439z" fill="none"/><path d="m57.457 16.28.928-6.03a4 4 0 0 0 -2.129-4.165l-1.032 6.715-.126.818a11.909 11.909 0 0 1 2.359 2.662z" fill="#cf1820"/><path d="m58.09 17.3c-.2-.359-.417-.692-.633-1.017a11.909 11.909 0 0 0 -2.357-2.668 6.484 6.484 0 0 0 -4.1-1.615 1 1 0 0 0 0 2 5.206 5.206 0 0 1 3.729 2.01 12.751 12.751 0 0 1 1.624 2.277c.215.376.413.787.611 1.2 1.936 3.999 3.036 9.548 3.036 15.513 0 11.383-4.122 21-9 21-3.689 0-7.165-5.722-8.452-13.915-.013-.083-.047-.372-.094-.74l-1.754 1.755c1.577 9.072 5.578 14.9 10.3 14.9 6.168 0 11-10.1 11-23 0-6.915-1.426-13.369-3.91-17.7z" fill="#ffcd00"/></g></symbol></svg>